<svg width="68" height="64" viewBox="0 0 68 64" fill="none" xmlns="http://www.w3.org/2000/svg">
<path d="M64 42.8001H52C50.6735 42.8001 49.6 41.7255 49.6 40.4001V33.2C49.6 31.8746 50.6735 30.8 52 30.8H64C65.3243 30.8 66.4 31.8746 66.4 33.2V40.4001C66.4 41.7254 65.3242 42.8001 64 42.8001Z" fill="#D8D4E8"/>
<path d="M64 44.0001H52C50.0149 44.0001 48.4 42.3852 48.4 40.4001V33.2001C48.4 31.215 50.0149 29.6001 52 29.6001H64C65.9852 29.6001 67.6 31.215 67.6 33.2001V40.4001C67.6 42.3852 65.9852 44.0001 64 44.0001ZM52 32.0001C51.3386 32.0001 50.8 32.5391 50.8 33.2001V40.4001C50.8 41.0611 51.3386 41.6001 52 41.6001H64C64.6615 41.6001 65.2 41.0611 65.2 40.4001V33.2001C65.2 32.5391 64.6615 32.0001 64 32.0001H52Z" fill="#566991"/>
<path d="M55.6 39.1999C54.2764 39.1999 53.2 38.1241 53.2 36.7999C53.2 35.4756 54.2764 34.3999 55.6 34.3999C56.9236 34.3999 58 35.4756 58 36.7999C58 38.1241 56.9236 39.1999 55.6 39.1999Z" fill="#566991"/>
<path d="M52 42.8001C50.6735 42.8001 49.6 41.7255 49.6 40.4001V33.2C49.6 31.8746 50.6735 30.8 52 30.8H64V16.4001C64 13.7494 61.8508 11.6 59.2 11.6H6.40001C3.74931 11.6 1.60001 9.45074 1.60001 6.80005V57.2C1.60001 59.8507 3.74931 62 6.40001 62H59.2C61.8508 62 64 59.8507 64 57.2V42.8001H52Z" fill="#7887A7"/>
<path d="M59.2 63.2H6.39999C3.0918 63.2 0.399994 60.508 0.399994 57.2V6.79998C0.399994 6.13665 0.93738 5.59998 1.59999 5.59998C2.26273 5.59998 2.79999 6.13665 2.79999 6.79998C2.79999 8.78508 4.41489 10.4 6.39999 10.4H59.2C62.5082 10.4 65.2 13.0918 65.2 16.4V30.8C65.2 31.4632 64.6627 32 64 32H52C51.3385 32 50.8 32.539 50.8 33.2V40.4C50.8 41.0609 51.3385 41.6 52 41.6H64C64.6627 41.6 65.2 42.1367 65.2 42.8V57.2C65.2 60.508 62.5082 63.2 59.2 63.2ZM2.79999 11.5976V57.2C2.79999 59.1852 4.41489 60.8 6.39999 60.8H59.2C61.1852 60.8 62.8 59.1852 62.8 57.2V44H52C50.0149 44 48.4 42.3851 48.4 40.4V33.2C48.4 31.2149 50.0149 29.6 52 29.6H62.8V16.4C62.8 14.4148 61.1852 12.8 59.2 12.8H6.39999C5.10116 12.8014 3.83729 12.3792 2.79999 11.5976Z" fill="#566991"/>
<path d="M59.2 22.4C58.5396 22.4 58 21.8598 58 21.2C58 20.539 58.5396 20 59.2 20C59.8598 20 60.4 20.539 60.4 21.2C60.4 21.8598 59.8598 22.4 59.2 22.4Z" fill="#566991"/>
<path d="M54.4 17.5999C53.7398 17.5999 53.2 17.0597 53.2 16.4C53.2 15.739 53.7398 15.2 54.4 15.2C55.0598 15.2 55.6 15.739 55.6 16.4C55.6 17.0597 55.0598 17.5999 54.4 17.5999ZM49.6 17.5999C48.9397 17.5999 48.4 17.0597 48.4 16.4C48.4 15.739 48.9397 15.2 49.6 15.2C50.2599 15.2 50.8 15.739 50.8 16.4C50.8 17.0597 50.2599 17.5999 49.6 17.5999ZM44.8 17.5999C44.1397 17.5999 43.6 17.0597 43.6 16.4C43.6 15.739 44.1397 15.2 44.8 15.2C45.4598 15.2 46 15.739 46 16.4C46 17.0597 45.4598 17.5999 44.8 17.5999ZM40 17.5999C39.3397 17.5999 38.8 17.0597 38.8 16.4C38.8 15.739 39.3397 15.2 40 15.2C40.6598 15.2 41.2 15.739 41.2 16.4C41.2 17.0597 40.6598 17.5999 40 17.5999ZM35.2 17.5999C34.5397 17.5999 34 17.0597 34 16.4C34 15.739 34.5397 15.2 35.2 15.2C35.8598 15.2 36.4 15.739 36.4 16.4C36.4 17.0597 35.8598 17.5999 35.2 17.5999ZM30.4 17.5999C29.7397 17.5999 29.2 17.0597 29.2 16.4C29.2 15.739 29.7397 15.2 30.4 15.2C31.0598 15.2 31.6 15.739 31.6 16.4C31.6 17.0597 31.0598 17.5999 30.4 17.5999ZM25.6 17.5999C24.9396 17.5999 24.4 17.0597 24.4 16.4C24.4 15.739 24.9396 15.2 25.6 15.2C26.2598 15.2 26.8 15.739 26.8 16.4C26.8 17.0597 26.2598 17.5999 25.6 17.5999ZM20.8 17.5999C20.1396 17.5999 19.6 17.0597 19.6 16.4C19.6 15.739 20.1396 15.2 20.8 15.2C21.4598 15.2 22 15.739 22 16.4C22 17.0597 21.4598 17.5999 20.8 17.5999ZM16 17.5999C15.3396 17.5999 14.8 17.0597 14.8 16.4C14.8 15.739 15.3396 15.2 16 15.2C16.6598 15.2 17.2 15.739 17.2 16.4C17.2 17.0597 16.6598 17.5999 16 17.5999ZM11.2 17.5999C10.5396 17.5999 10 17.0597 10 16.4C10 15.739 10.5396 15.2 11.2 15.2C11.8598 15.2 12.4 15.739 12.4 16.4C12.4 17.0597 11.8598 17.5999 11.2 17.5999Z" fill="#566991"/>
<path d="M59.2 53.5999C58.5396 53.5999 58 53.0597 58 52.4C58 51.739 58.5396 51.2 59.2 51.2C59.8598 51.2 60.4 51.739 60.4 52.4C60.4 53.0597 59.8598 53.5999 59.2 53.5999Z" fill="#566991"/>
<path d="M54.4 58.4C53.7398 58.4 53.2 57.8596 53.2 57.2C53.2 56.539 53.7398 56 54.4 56C55.0598 56 55.6 56.539 55.6 57.2C55.6 57.8596 55.0598 58.4 54.4 58.4ZM49.6 58.4C48.9397 58.4 48.4 57.8596 48.4 57.2C48.4 56.539 48.9397 56 49.6 56C50.2599 56 50.8 56.539 50.8 57.2C50.8 57.8596 50.2599 58.4 49.6 58.4ZM44.8 58.4C44.1397 58.4 43.6 57.8596 43.6 57.2C43.6 56.539 44.1397 56 44.8 56C45.4598 56 46 56.539 46 57.2C46 57.8596 45.4598 58.4 44.8 58.4ZM40 58.4C39.3397 58.4 38.8 57.8596 38.8 57.2C38.8 56.539 39.3397 56 40 56C40.6598 56 41.2 56.539 41.2 57.2C41.2 57.8596 40.6598 58.4 40 58.4ZM35.2 58.4C34.5397 58.4 34 57.8596 34 57.2C34 56.539 34.5397 56 35.2 56C35.8598 56 36.4 56.539 36.4 57.2C36.4 57.8596 35.8598 58.4 35.2 58.4ZM30.4 58.4C29.7397 58.4 29.2 57.8596 29.2 57.2C29.2 56.539 29.7397 56 30.4 56C31.0598 56 31.6 56.539 31.6 57.2C31.6 57.8596 31.0598 58.4 30.4 58.4ZM25.6 58.4C24.9396 58.4 24.4 57.8596 24.4 57.2C24.4 56.539 24.9396 56 25.6 56C26.2598 56 26.8 56.539 26.8 57.2C26.8 57.8596 26.2598 58.4 25.6 58.4ZM20.8 58.4C20.1396 58.4 19.6 57.8596 19.6 57.2C19.6 56.539 20.1396 56 20.8 56C21.4598 56 22 56.539 22 57.2C22 57.8596 21.4598 58.4 20.8 58.4ZM16 58.4C15.3396 58.4 14.8 57.8596 14.8 57.2C14.8 56.539 15.3396 56 16 56C16.6598 56 17.2 56.539 17.2 57.2C17.2 57.8596 16.6598 58.4 16 58.4ZM11.2 58.4C10.5396 58.4 10 57.8596 10 57.2C10 56.539 10.5396 56 11.2 56C11.8598 56 12.4 56.539 12.4 57.2C12.4 57.8596 11.8598 58.4 11.2 58.4Z" fill="#566991"/>
<path d="M59.2 11.6H6.39998C3.74928 11.6 1.59998 9.4507 1.59998 6.8C1.59998 4.14919 3.74928 2 6.39998 2H54.4C57.0507 2 59.2 4.14919 59.2 6.8V11.6Z" fill="#3C4A66"/>
<path d="M59.2001 12.8001H6.40001C3.0918 12.8001 0.399994 10.1082 0.399994 6.80005C0.399994 3.49185 3.0918 0.800049 6.40001 0.800049H54.4001C57.7083 0.800049 60.4001 3.49185 60.4001 6.80005V11.6C60.4001 12.2634 59.8629 12.8001 59.2001 12.8001ZM6.40001 3.20005C4.4149 3.20005 2.8 4.81482 2.8 6.80005C2.8 8.78528 4.4149 10.4001 6.40001 10.4001H58.0001V6.80005C58.0001 4.81482 56.3852 3.20005 54.4001 3.20005H6.40001Z" fill="#566991"/>
</svg>
