<svg width="73" height="58" viewBox="0 0 73 58" fill="none" xmlns="http://www.w3.org/2000/svg">
<path d="M15.7949 56.3366C12.4012 56.3366 9.64023 53.5745 9.64023 50.1796C9.64023 46.7857 12.4012 44.0249 15.7949 44.0249C19.1899 44.0249 21.9532 46.7857 21.9532 50.1796C21.9532 53.5745 19.1899 56.3366 15.7949 56.3366Z" fill="#BEB8D8"/>
<path d="M22.0282 50.7398L21.9238 49.6137C21.6379 46.4788 18.9437 44.025 15.7949 44.025C12.6472 44.025 9.95545 46.4788 9.66958 49.6137L9.56527 50.7399H4.04456C2.80939 50.7399 1.804 49.7366 1.804 48.5003V14.9226C1.804 13.6875 2.80939 12.6842 4.04456 12.6842H37.6222C38.8563 12.6842 39.8606 13.6875 39.8606 14.9226V20.0953L39.8476 20.1867C39.8301 20.2968 39.8101 20.4046 39.8101 20.5195V23.7562L39.8605 24.9961V50.7398H22.028H22.0282Z" fill="#7887A7"/>
<path d="M54.972 56.3366C51.5758 56.3366 48.8148 53.5745 48.8148 50.1796C48.8148 46.7857 51.5758 44.0249 54.972 44.0249C58.3656 44.0249 61.1277 46.7857 61.1277 50.1796C61.1277 53.5745 58.3656 56.3366 54.972 56.3366Z" fill="#BEB8D8"/>
<path d="M61.2028 50.7398L61.0984 49.6137C60.8125 46.4788 58.1207 44.025 54.972 44.025C51.8219 44.025 49.13 46.4788 48.8441 49.6137L48.7398 50.7399H39.8605V22.7578H55.532C56.766 22.7578 57.7691 23.7621 57.7691 24.9961L62.2456 35.0695L68.9629 36.1899H69.1434L69.2875 36.239C70.3972 36.5683 71.2 38.4444 71.2 39.5461V46.2633H64.6048H71.2V48.5003C71.2 49.7367 70.1969 50.7399 68.9629 50.7399H61.2028V50.7398Z" fill="#BEB8D8"/>
<path d="M68.9629 51.9398H62.2456V49.5398H68.9629C69.5347 49.5398 70 49.0735 70 48.5002V39.5461C70 38.6978 69.2928 37.4766 68.9435 37.3875C68.8773 37.3875 68.831 37.384 68.7654 37.3735L62.0481 36.2531C61.8524 36.2205 61.6677 36.1399 61.5108 36.0184C61.3538 35.897 61.2294 35.7384 61.1487 35.5571L56.6723 25.4835C56.6042 25.3301 56.569 25.164 56.5691 24.9962C56.5691 24.423 56.1039 23.9577 55.532 23.9577H39.8605V21.5579H55.532C57.3332 21.5579 58.815 22.95 58.958 24.716L63.0801 33.9914L69.0801 34.9923C71.0809 35.0929 72.4 37.7672 72.4 39.5461V48.5004C72.4 50.3977 70.8584 51.94 68.9629 51.94V51.9398ZM8.51996 51.9398H4.04455C2.14725 51.9398 0.603882 50.3977 0.603882 48.5002V33.9493H3.00388V48.5002C3.00388 49.0735 3.47081 49.5398 4.04455 49.5398H8.51996V51.9398ZM48.8148 51.9398H21.9531V49.5398H48.8148V51.9398Z" fill="#3C4A66"/>
<path d="M15.7949 57.5368C11.7397 57.5368 8.44025 54.2367 8.44025 50.1797C8.44025 46.125 11.7397 42.8249 15.7949 42.8249C19.8526 42.8249 23.1532 46.125 23.1532 50.1797C23.1532 54.2367 19.8526 57.5368 15.7949 57.5368ZM15.7949 45.225C13.0627 45.225 10.8402 47.4468 10.8402 50.1797C10.8402 52.9126 13.0627 55.1367 15.7949 55.1367C18.5289 55.1367 20.7532 52.9125 20.7532 50.1797C20.7532 47.4469 18.529 45.225 15.7949 45.225ZM54.972 57.5368C50.9154 57.5368 47.6149 54.2367 47.6149 50.1797C47.6149 46.125 50.9155 42.8249 54.972 42.8249C59.0277 42.8249 62.3279 46.125 62.3279 50.1797C62.3279 54.2367 59.0277 57.5368 54.972 57.5368ZM54.972 45.225C52.2386 45.225 50.0149 47.4468 50.0149 50.1797C50.0149 52.9126 52.2386 55.1367 54.972 55.1367C57.7046 55.1367 59.9276 52.9125 59.9276 50.1797C59.9276 47.4469 57.7046 45.225 54.972 45.225ZM70.082 47.4632H63.366V45.0632H70.082V47.4632ZM41.0605 49.6194H38.6605V22.7579H41.0605V49.6194ZM47.6958 41.4914H44.3359V39.0914H47.6958V41.4914Z" fill="#3C4A66"/>
<path d="M41.0605 39.5461H38.6605V14.9227C38.6605 14.3496 38.1948 13.8844 37.6222 13.8844H4.04455C3.47093 13.8844 3.00388 14.3496 3.00388 14.9227V39.5461H0.603882V14.9227C0.603882 13.0266 2.14725 11.4844 4.04455 11.4844H37.6222C39.5184 11.4844 41.0606 13.0266 41.0606 14.9227V39.5461H41.0605Z" fill="#3C4A66"/>
<path d="M36.5031 20.5992H4.04457V18.1992H36.5031V20.5992ZM36.5031 29.5547H4.04457V27.1547H36.5031V29.5547ZM36.5031 38.5077H4.04457V36.1077H36.5031V38.5077Z" fill="#3C4A66"/>
<path d="M43.2192 35.1938C43.2192 35.8126 43.7207 36.3129 44.336 36.3129H56.6512C57.2688 36.3129 57.7691 35.8126 57.7691 35.1937L54.4118 28.4766C54.4118 27.8579 53.9101 27.3574 53.2914 27.3574H44.3359C43.7207 27.3574 43.2191 27.8579 43.2191 28.4766V35.1938H43.2192Z" fill="#D8D4E8"/>
<path d="M56.6512 37.5129H44.3359C43.0587 37.5129 42.0191 36.4724 42.0191 35.1937V28.4767C42.0191 27.1981 43.0587 26.1575 44.3359 26.1575H53.2914C54.4586 26.1575 55.4276 27.0236 55.5882 28.1473L58.8425 34.657C58.9259 34.8237 58.9693 35.0075 58.9691 35.1938C58.9691 36.4722 57.9291 37.513 56.6511 37.513L56.6512 37.5129ZM53.2118 28.4767L44.3359 28.5575L44.4191 35.1938L56.3882 35.1141L53.3383 29.0134C53.2551 28.847 53.2118 28.664 53.2118 28.4767Z" fill="#3C4A66"/>
<path d="M13.1663 1.26331C19.5555 1.26331 24.734 6.44291 24.734 12.8296C24.734 19.2188 19.5555 24.3961 13.1665 24.3961C6.77735 24.3961 1.60001 19.2188 1.60001 12.8298C1.60001 6.44303 6.77735 1.26331 13.1663 1.26331Z" fill="#BEB8D8"/>
<path d="M13.1663 25.5961C6.12696 25.5961 0.399994 19.8704 0.399994 12.8298C0.399994 5.79139 6.12696 0.0632324 13.1663 0.0632324C20.2064 0.0632324 25.934 5.79139 25.934 12.8297C25.934 19.8704 20.2064 25.596 13.1665 25.596L13.1663 25.5961ZM13.1663 2.46323C7.45065 2.46323 2.79999 7.11448 2.79999 12.8297C2.79999 18.5461 7.45053 23.196 13.1663 23.196C18.8834 23.196 23.534 18.5461 23.534 12.8297C23.534 7.11448 18.8834 2.46335 13.1665 2.46335L13.1663 2.46323Z" fill="#3C4A66"/>
<path d="M19.777 13.9922H11.9489V3.79224H14.3489V11.5922H19.777V13.9922Z" fill="#3C4A66"/>
</svg>
